# xmcd
#
# Track frame offsets:
#        150
#        3185
#        14431
#        29481
#        34250
#        47742
#        60249
#        78256
#        91066
#        108349
#        112245
#        130812
#        135419
#        150289
#        166265
#        182702
#
# Disc length: 2652 seconds
#
# Revision: 0
# Processed by: cddbd v1.5.1PL2 Copyright (c) Steve Scherf et al.
# Submitted via: ExactAudioCopy v0.95a5
#
DISCID=ba0a5a10
DTITLE=Sol Uprising - Sol Power
DYEAR=2003
DGENRE=Hip-Hop
TTITLE0=Sol Power Intro
TTITLE1=Introspect (Do My Thang)
TTITLE2=Understanding
TTITLE3=Fluid
TTITLE4=We Ourself and Us
TTITLE5=Now is the Time
TTITLE6=Sol Power
TTITLE7=Raach Ya Sol
TTITLE8=Solar Love
TTITLE9=Groove Intermission
TTITLE10=My Sound
TTITLE11=Gravity (Hold Me Down)
TTITLE12=They Don't Know
TTITLE13=The Uprising
TTITLE14=Don't Ignore Me
TTITLE15=Bonus Track_ My Sound (Sunland Remix)
EXTD=
EXTT0=
EXTT1=
EXTT2=
EXTT3=
EXTT4=
EXTT5=
EXTT6=
EXTT7=
EXTT8=
EXTT9=
EXTT10=
EXTT11=
EXTT12=
EXTT13=
EXTT14=
EXTT15=
PLAYORDER=
